<svg xmlns="http://www.w3.org/2000/svg" xmlns:xlink="http://www.w3.org/1999/xlink" viewBox="0 0 516.88 695.67"><defs><style>.cls-1,.cls-12{fill:none;}.cls-2{isolation:isolate;}.cls-3{fill:#473e3e;}.cls-4{fill:#534747;}.cls-5{fill:#332d2d;}.cls-6{clip-path:url(#clip-path);}.cls-7{fill:#fbc39d;}.cls-8{fill:#f9ac7f;}.cls-9{fill:#3b1000;}.cls-10{fill:#e1926a;opacity:0.27;mix-blend-mode:multiply;}.cls-11{fill:#150d03;}.cls-12{stroke:#e58b5e;stroke-linecap:round;stroke-linejoin:round;stroke-width:1.95px;}.cls-13{fill:#bfbfbf;}.cls-14{fill:#d8d8d8;}.cls-15{fill:#f9f9f9;}.cls-16{fill:#1e1c1c;}</style><clipPath id="clip-path"><path class="cls-1" d="M295.38,105.81S281.57,87.53,254,87.53s-41.4,18.28-41.4,18.28C159.33,155.86,106.1,283.93,171.16,320.5S254,395.58,254,395.58s17.75-38.5,82.81-75.08S348.61,155.86,295.38,105.81Z"/></clipPath></defs><title>Asset 5logo</title><g class="cls-2"><g id="Layer_2" data-name="Layer 2"><g id="Layer_1-2" data-name="Layer 1"><path class="cls-3" d="M319.1,349.46H194.91S94.05,387,94.05,498.52v65.13H420V498.52C420,387,319.1,349.46,319.1,349.46Z"/><path class="cls-4" d="M410.64,208.86C386.58,95.29,326.37,10.59,254,0,181.57,10.59,121.36,95.29,97.3,208.86s93.36,152.07,93.36,152.07L254,395.58l63.31-34.65S434.7,322.43,410.64,208.86Z"/><path class="cls-5" d="M295.38,105.81S281.57,87.53,254,87.53s-41.4,18.28-41.4,18.28C159.33,155.86,106.1,283.93,171.16,320.5S254,395.58,254,395.58s17.75-38.5,82.81-75.08S348.61,155.86,295.38,105.81Z"/><g class="cls-6"><path class="cls-7" d="M273.4,273.48H234.54c-7.84,0-14.21,7.14-14.21,15.95v68.39c0,20.85,15.06,37.76,33.64,37.76s33.64-16.91,33.64-37.76V289.43C287.61,280.62,281.25,273.48,273.4,273.48Z"/><path class="cls-8" d="M219.46,308.8s2.72,19.81,33.64,19.81,33.64-19.81,33.64-19.81Z"/><path class="cls-8" d="M350.62,177.62c-11.73,0-21.24,9.89-21.24,22.09s9.51,22.09,21.24,22.09,21.25-9.89,21.25-22.09S362.35,177.62,350.62,177.62Z"/><path class="cls-8" d="M157.39,177.62c-11.73,0-21.24,9.89-21.24,22.09s9.51,22.09,21.24,22.09,21.25-9.89,21.25-22.09S169.13,177.62,157.39,177.62Z"/><path class="cls-7" d="M246.24,315.15l-.17.16c2.61.21,5.24.35,7.9.35h0a95.79,95.79,0,0,0,23.2-2.84l.09-.2c41.1-10.29,71.51-47.16,71.51-91.08V111.47c0-51.88-42.44-43.61-94.8-43.61h0c-52.35,0-94.8-8.27-94.8,43.61V221.54C159.17,270.84,197.5,311.25,246.24,315.15Z"/><path class="cls-8" d="M255.84,244.89h-5.49a10.78,10.78,0,0,1-10.7-12.13l2.74-26.32A10.8,10.8,0,0,1,253.1,197h0a10.79,10.79,0,0,1,10.7,9.45l2.75,26.32A10.79,10.79,0,0,1,255.84,244.89Z"/><path class="cls-9" d="M186.85,89.68s-5,33.57,71.34,53c0,0-15-14.89-15.77-21.81,0,0,11,18.62,60.79,25.63,0,0-22.66-13.88-21.26-21.78,0,0,34.23,30.59,66.82,21.49L314.46,103A84.87,84.87,0,0,0,214.35,77.81Z"/><path class="cls-10" d="M137.09,226.81s36.75-78.17,114.76-78.32,115,73.71,115,73.71S348.63,37.3,250.72,37.3,137.09,226.81,137.09,226.81Z"/><path class="cls-11" d="M163,164.93H234a9.74,9.74,0,0,1,9.74,9.74v45.66a14.17,14.17,0,0,1-14.17,14.17H170.67a16.35,16.35,0,0,1-16.35-16.35V173.62A8.69,8.69,0,0,1,163,164.93Z"/><path class="cls-11" d="M278.59,164.93h58.86a14.17,14.17,0,0,1,14.17,14.17v45.66a9.74,9.74,0,0,1-9.74,9.74H270.94a8.69,8.69,0,0,1-8.69-8.69V181.28A16.35,16.35,0,0,1,278.59,164.93Z" transform="translate(613.87 399.44) rotate(180)"/><rect class="cls-11" x="241.24" y="183.92" width="22.64" height="16.38"/><line class="cls-12" x1="236.62" y1="269.33" x2="271.32" y2="269.33"/></g><rect class="cls-13" y="659.06" width="516.88" height="36.61" rx="8.4"/><rect class="cls-14" x="35.99" y="422.4" width="441.94" height="273.27" rx="10.79"/><path class="cls-15" d="M256.35,599.62a35.75,35.75,0,1,1,35.74-35.74A35.78,35.78,0,0,1,256.35,599.62Z"/><path class="cls-16" d="M281.66,516.07a58.06,58.06,0,0,0-54.51,0c-17.05,9.1-33,27.7-16.85,65.2,0,0-8.65,28.74,18.77,22.29,0,0,4.4-.73,4.11,5.87v4a4.65,4.65,0,0,0,4.64,4.65H238a4.64,4.64,0,0,0,4.64-4.65v-3.86h7.21v3.86a4.65,4.65,0,0,0,4.64,4.65h.14a4.65,4.65,0,0,0,4.64-4.65v-3.86h6.9v3.86a4.65,4.65,0,0,0,4.64,4.65h.14a4.65,4.65,0,0,0,4.64-4.65v-3.86h.08v-.09c-.3-6.6,4.1-5.87,4.1-5.87,27.42,6.45,18.77-22.29,18.77-22.29C314.65,543.77,298.71,525.17,281.66,516.07Zm-47.58,65.87A11.9,11.9,0,1,1,246,570.05,11.89,11.89,0,0,1,234.08,581.94Zm16.31,9.47a4.13,4.13,0,1,1,8.26,0c.09,1,.13,2.24.13,3.63,0,2.14-.46,2.39-1.22,2a6.84,6.84,0,0,0-6.08,0c-.76.38-1.22.13-1.22-2C250.26,593.65,250.3,592.45,250.39,591.41Zm23.68-9.47A11.9,11.9,0,1,1,286,570.05,11.89,11.89,0,0,1,274.07,581.94Z"/></g></g></g></svg>